<?xml version="1.0" encoding="utf-8"?>
<!-- Generator: Adobe Illustrator 16.0.0, SVG Export Plug-In . SVG Version: 6.00 Build 0)  -->
<!DOCTYPE svg PUBLIC "-//W3C//DTD SVG 1.1//EN" "http://www.w3.org/Graphics/SVG/1.1/DTD/svg11.dtd">
<svg version="1.1" id="Warstwa_1" xmlns="http://www.w3.org/2000/svg" xmlns:xlink="http://www.w3.org/1999/xlink" x="0px" y="0px"
	 width="32px" height="32px" viewBox="0 0 32 32" enable-background="new 0 0 32 32" xml:space="preserve">
<title>Spectre.css Logo</title>
<g>
	<g>
		<g>
			<path id="a" fill="#5755D9" d="M16,0L16,0c8.836,0,16,7.164,16,16l0,0c0,8.836-7.164,16-16,16l0,0C7.164,32,0,24.836,0,16l0,0
				C0,7.164,7.164,0,16,0z"/>
		</g>
		<path fill="none" stroke="#000000" stroke-width="0.5" stroke-opacity="0.1" d="M16,0.25L16,0.25c8.698,0,15.75,7.052,15.75,15.75
			l0,0c0,8.698-7.052,15.75-15.75,15.75l0,0C7.302,31.75,0.25,24.698,0.25,16l0,0C0.25,7.302,7.302,0.25,16,0.25z"/>
	</g>
	<path fill="#FFFFFF" d="M13.338,9.167v2.662h-1.841V7.751H9.656v6.727h0.765h0.637c0.566,0,0.968,0.033,1.204,0.099
		c0.245,0.076,0.453,0.213,0.623,0.411c0.198,0.198,0.326,0.401,0.382,0.609c0.048,0.236,0.071,0.637,0.071,1.204v0.51v5.522v0.538
		c0,0.604-0.09,1.081-0.27,1.43c-0.179,0.368-0.472,0.628-0.878,0.78c-0.396,0.149-0.944,0.227-1.643,0.227
		c-0.972,0-1.671-0.185-2.096-0.553c-0.425-0.369-0.637-0.974-0.637-1.813v-0.608v-3.611h1.841v5.027h1.841v-8.256h-0.765h-0.638
		c-0.538,0-0.92-0.033-1.146-0.099c-0.246-0.057-0.473-0.189-0.681-0.397c-0.122-0.132-0.202-0.24-0.24-0.325
		c-0.038-0.075-0.08-0.189-0.127-0.34c-0.028-0.104-0.053-0.25-0.071-0.439c-0.01-0.085-0.014-0.321-0.014-0.708v-0.51V9.167V8.628
		c0.019-0.925,0.23-1.562,0.637-1.912c0.405-0.349,1.128-0.523,2.167-0.523c0.991,0,1.708,0.208,2.152,0.623
		c0.227,0.217,0.377,0.439,0.453,0.666c0.075,0.246,0.113,0.604,0.113,1.076V9.167z"/>
	<path fill="#D3D3D3" d="M24.185,9.153v16.511h-1.842V7.751h-1.84v17.913h-1.842V7.751h-1.826v17.913h-1.841V9.153V8.544
		c0-0.84,0.203-1.444,0.608-1.813c0.406-0.358,1.063-0.538,1.968-0.538c0.868,0,1.54,0.217,2.013,0.651
		c0.303-0.245,0.595-0.416,0.878-0.51c0.274-0.094,0.651-0.142,1.133-0.142c0.935,0,1.599,0.184,1.997,0.552
		c0.396,0.377,0.594,0.996,0.594,1.855V9.153z"/>
</g>
</svg>
